<?xml version="1.0" standalone="no"?>
<svg xmlns="http://www.w3.org/2000/svg" version="1.0" width="700.000000pt" height="700.000000pt" viewBox="0 0 700.000000 700.000000" preserveAspectRatio="xMidYMid meet">
    <metadata>
        Created by potrace 1.11, written by Peter Selinger 2001-2013
    </metadata>
    <g transform="translate(0.000000,700.000000) scale(0.100000,-0.100000)" fill="#000000" stroke="none">
        <path d="M0 3500 l0 -3500 3500 0 3500 0 0 3500 0 3500 -3500 0 -3500 0 0 -3500z m3773 1111 c183 -371 271 -540 284 -543 10 -3 280 -43 600 -89 321 -46 583 -87 583 -90 0 -4 -193 -195 -430 -425 -240 -233 -430 -426 -430 -436 0 -9 45 -279 100 -599 55 -321 98 -584 97 -586 -2 -2 -243 123 -536 277 -293 154 -536 280 -541 280 -5 0 -248 -126 -541 -280 -293 -154 -534 -279 -536 -277 -1 2 42 265 97 586 55 320 100 590 100 599 0 10 -190 203 -430 436 -237 230 -430 421 -430 425 0 3 262 44 583 90 320 46 590 86 600 89 13 3 101 172 284 543 147 297 269 539 273 539 4 0 126 -242 273 -539z" />
    </g>
</svg>